<?xml version="1.0" encoding="UTF-8" ?>
<svg width="411.0422816311423" height="411.0422816311423">
<g>
<line x1="352.08283232371207" y1="282.44265041568667" x2="299.5478657516206" y2="341.7423691710982" stroke="black" stroke-width="1.5" />
<line x1="352.08283232371207" y1="282.44265041568667" x2="225.47250964155398" y2="369.83544615402224" stroke="black" stroke-width="1.5" />
<line x1="352.08283232371207" y1="282.44265041568667" x2="146.82653537351393" y2="360.28609598594994" stroke="black" stroke-width="1.5" />
<line x1="352.08283232371207" y1="282.44265041568667" x2="81.62678786557385" y2="315.28195970824174" stroke="black" stroke-width="1.5" />
<line x1="352.08283232371207" y1="282.44265041568667" x2="44.80974352966703" y2="245.132942583484" stroke="black" stroke-width="1.5" />
<line x1="352.08283232371207" y1="282.44265041568667" x2="44.809743529667" y2="165.90933904765842" stroke="black" stroke-width="1.5" />
<line x1="352.08283232371207" y1="282.44265041568667" x2="81.62678786557377" y2="95.76032192290067" stroke="black" stroke-width="1.5" />
<line x1="352.08283232371207" y1="282.44265041568667" x2="146.82653537351388" y2="50.756185645192375" stroke="black" stroke-width="1.5" />
<line x1="352.08283232371207" y1="282.44265041568667" x2="225.47250964155384" y2="41.20683547712005" stroke="black" stroke-width="1.5" />
<line x1="352.08283232371207" y1="282.44265041568667" x2="299.5478657516204" y2="69.29991246004403" stroke="black" stroke-width="1.5" />
<line x1="352.08283232371207" y1="282.44265041568667" x2="352.08283232371195" y2="128.59963121545542" stroke="black" stroke-width="1.5" />
<line x1="352.08283232371207" y1="282.44265041568667" x2="371.0422816311423" y2="205.52114081557082" stroke="black" stroke-width="1.5" />
<line x1="299.5478657516206" y1="341.7423691710982" x2="225.47250964155398" y2="369.83544615402224" stroke="black" stroke-width="1.5" />
<line x1="299.5478657516206" y1="341.7423691710982" x2="146.82653537351393" y2="360.28609598594994" stroke="black" stroke-width="1.5" />
<line x1="299.5478657516206" y1="341.7423691710982" x2="81.62678786557385" y2="315.28195970824174" stroke="black" stroke-width="1.5" />
<line x1="299.5478657516206" y1="341.7423691710982" x2="44.80974352966703" y2="245.132942583484" stroke="black" stroke-width="1.5" />
<line x1="299.5478657516206" y1="341.7423691710982" x2="44.809743529667" y2="165.90933904765842" stroke="black" stroke-width="1.5" />
<line x1="299.5478657516206" y1="341.7423691710982" x2="81.62678786557377" y2="95.76032192290067" stroke="black" stroke-width="1.5" />
<line x1="299.5478657516206" y1="341.7423691710982" x2="146.82653537351388" y2="50.756185645192375" stroke="black" stroke-width="1.5" />
<line x1="299.5478657516206" y1="341.7423691710982" x2="225.47250964155384" y2="41.20683547712005" stroke="black" stroke-width="1.5" />
<line x1="299.5478657516206" y1="341.7423691710982" x2="299.5478657516204" y2="69.29991246004403" stroke="black" stroke-width="1.5" />
<line x1="299.5478657516206" y1="341.7423691710982" x2="352.08283232371195" y2="128.59963121545542" stroke="black" stroke-width="1.5" />
<line x1="299.5478657516206" y1="341.7423691710982" x2="371.0422816311423" y2="205.52114081557082" stroke="black" stroke-width="1.5" />
<line x1="225.47250964155398" y1="369.83544615402224" x2="146.82653537351393" y2="360.28609598594994" stroke="black" stroke-width="1.5" />
<line x1="225.47250964155398" y1="369.83544615402224" x2="81.62678786557385" y2="315.28195970824174" stroke="black" stroke-width="1.5" />
<line x1="225.47250964155398" y1="369.83544615402224" x2="44.80974352966703" y2="245.132942583484" stroke="black" stroke-width="1.5" />
<line x1="225.47250964155398" y1="369.83544615402224" x2="44.809743529667" y2="165.90933904765842" stroke="black" stroke-width="1.5" />
<line x1="225.47250964155398" y1="369.83544615402224" x2="81.62678786557377" y2="95.76032192290067" stroke="black" stroke-width="1.5" />
<line x1="225.47250964155398" y1="369.83544615402224" x2="146.82653537351388" y2="50.756185645192375" stroke="black" stroke-width="1.5" />
<line x1="225.47250964155398" y1="369.83544615402224" x2="225.47250964155384" y2="41.20683547712005" stroke="black" stroke-width="1.5" />
<line x1="225.47250964155398" y1="369.83544615402224" x2="299.5478657516204" y2="69.29991246004403" stroke="black" stroke-width="1.5" />
<line x1="225.47250964155398" y1="369.83544615402224" x2="352.08283232371195" y2="128.59963121545542" stroke="black" stroke-width="1.5" />
<line x1="225.47250964155398" y1="369.83544615402224" x2="371.0422816311423" y2="205.52114081557082" stroke="black" stroke-width="1.5" />
<line x1="146.82653537351393" y1="360.28609598594994" x2="81.62678786557385" y2="315.28195970824174" stroke="black" stroke-width="1.5" />
<line x1="146.82653537351393" y1="360.28609598594994" x2="44.80974352966703" y2="245.132942583484" stroke="black" stroke-width="1.5" />
<line x1="146.82653537351393" y1="360.28609598594994" x2="44.809743529667" y2="165.90933904765842" stroke="black" stroke-width="1.5" />
<line x1="146.82653537351393" y1="360.28609598594994" x2="81.62678786557377" y2="95.76032192290067" stroke="black" stroke-width="1.5" />
<line x1="146.82653537351393" y1="360.28609598594994" x2="146.82653537351388" y2="50.756185645192375" stroke="black" stroke-width="1.5" />
<line x1="146.82653537351393" y1="360.28609598594994" x2="225.47250964155384" y2="41.20683547712005" stroke="black" stroke-width="1.5" />
<line x1="146.82653537351393" y1="360.28609598594994" x2="299.5478657516204" y2="69.29991246004403" stroke="black" stroke-width="1.5" />
<line x1="146.82653537351393" y1="360.28609598594994" x2="352.08283232371195" y2="128.59963121545542" stroke="black" stroke-width="1.5" />
<line x1="146.82653537351393" y1="360.28609598594994" x2="371.0422816311423" y2="205.52114081557082" stroke="black" stroke-width="1.5" />
<line x1="81.62678786557385" y1="315.28195970824174" x2="44.80974352966703" y2="245.132942583484" stroke="black" stroke-width="1.5" />
<line x1="81.62678786557385" y1="315.28195970824174" x2="44.809743529667" y2="165.90933904765842" stroke="black" stroke-width="1.5" />
<line x1="81.62678786557385" y1="315.28195970824174" x2="81.62678786557377" y2="95.76032192290067" stroke="black" stroke-width="1.5" />
<line x1="81.62678786557385" y1="315.28195970824174" x2="146.82653537351388" y2="50.756185645192375" stroke="black" stroke-width="1.5" />
<line x1="81.62678786557385" y1="315.28195970824174" x2="225.47250964155384" y2="41.20683547712005" stroke="black" stroke-width="1.5" />
<line x1="81.62678786557385" y1="315.28195970824174" x2="299.5478657516204" y2="69.29991246004403" stroke="black" stroke-width="1.5" />
<line x1="81.62678786557385" y1="315.28195970824174" x2="352.08283232371195" y2="128.59963121545542" stroke="black" stroke-width="1.5" />
<line x1="81.62678786557385" y1="315.28195970824174" x2="371.0422816311423" y2="205.52114081557082" stroke="black" stroke-width="1.5" />
<line x1="44.80974352966703" y1="245.132942583484" x2="44.809743529667" y2="165.90933904765842" stroke="black" stroke-width="1.5" />
<line x1="44.80974352966703" y1="245.132942583484" x2="81.62678786557377" y2="95.76032192290067" stroke="black" stroke-width="1.5" />
<line x1="44.80974352966703" y1="245.132942583484" x2="146.82653537351388" y2="50.756185645192375" stroke="black" stroke-width="1.5" />
<line x1="44.80974352966703" y1="245.132942583484" x2="225.47250964155384" y2="41.20683547712005" stroke="black" stroke-width="1.5" />
<line x1="44.80974352966703" y1="245.132942583484" x2="299.5478657516204" y2="69.29991246004403" stroke="black" stroke-width="1.5" />
<line x1="44.80974352966703" y1="245.132942583484" x2="352.08283232371195" y2="128.59963121545542" stroke="black" stroke-width="1.5" />
<line x1="44.80974352966703" y1="245.132942583484" x2="371.0422816311423" y2="205.52114081557082" stroke="black" stroke-width="1.5" />
<line x1="44.809743529667" y1="165.90933904765842" x2="81.62678786557377" y2="95.76032192290067" stroke="black" stroke-width="1.5" />
<line x1="44.809743529667" y1="165.90933904765842" x2="146.82653537351388" y2="50.756185645192375" stroke="black" stroke-width="1.5" />
<line x1="44.809743529667" y1="165.90933904765842" x2="225.47250964155384" y2="41.20683547712005" stroke="black" stroke-width="1.5" />
<line x1="44.809743529667" y1="165.90933904765842" x2="299.5478657516204" y2="69.29991246004403" stroke="black" stroke-width="1.5" />
<line x1="44.809743529667" y1="165.90933904765842" x2="352.08283232371195" y2="128.59963121545542" stroke="black" stroke-width="1.5" />
<line x1="44.809743529667" y1="165.90933904765842" x2="371.0422816311423" y2="205.52114081557082" stroke="black" stroke-width="1.5" />
<line x1="81.62678786557377" y1="95.76032192290067" x2="146.82653537351388" y2="50.756185645192375" stroke="black" stroke-width="1.5" />
<line x1="81.62678786557377" y1="95.76032192290067" x2="225.47250964155384" y2="41.20683547712005" stroke="black" stroke-width="1.5" />
<line x1="81.62678786557377" y1="95.76032192290067" x2="299.5478657516204" y2="69.29991246004403" stroke="black" stroke-width="1.5" />
<line x1="81.62678786557377" y1="95.76032192290067" x2="352.08283232371195" y2="128.59963121545542" stroke="black" stroke-width="1.5" />
<line x1="81.62678786557377" y1="95.76032192290067" x2="371.0422816311423" y2="205.52114081557082" stroke="black" stroke-width="1.5" />
<line x1="146.82653537351388" y1="50.756185645192375" x2="225.47250964155384" y2="41.20683547712005" stroke="black" stroke-width="1.5" />
<line x1="146.82653537351388" y1="50.756185645192375" x2="299.5478657516204" y2="69.29991246004403" stroke="black" stroke-width="1.5" />
<line x1="146.82653537351388" y1="50.756185645192375" x2="352.08283232371195" y2="128.59963121545542" stroke="black" stroke-width="1.5" />
<line x1="146.82653537351388" y1="50.756185645192375" x2="371.0422816311423" y2="205.52114081557082" stroke="black" stroke-width="1.5" />
<line x1="225.47250964155384" y1="41.20683547712005" x2="299.5478657516204" y2="69.29991246004403" stroke="black" stroke-width="1.5" />
<line x1="225.47250964155384" y1="41.20683547712005" x2="352.08283232371195" y2="128.59963121545542" stroke="black" stroke-width="1.5" />
<line x1="225.47250964155384" y1="41.20683547712005" x2="371.0422816311423" y2="205.52114081557082" stroke="black" stroke-width="1.5" />
<line x1="299.5478657516204" y1="69.29991246004403" x2="352.08283232371195" y2="128.59963121545542" stroke="black" stroke-width="1.5" />
<line x1="299.5478657516204" y1="69.29991246004403" x2="371.0422816311423" y2="205.52114081557082" stroke="black" stroke-width="1.5" />
<line x1="352.08283232371195" y1="128.59963121545542" x2="371.0422816311423" y2="205.52114081557082" stroke="black" stroke-width="1.5" />
<line x1="352.08283232371207" y1="282.44265041568667" x2="299.5478657516206" y2="341.7423691710982" stroke="red" stroke-width="1.5" />
<line x1="299.5478657516206" y1="341.7423691710982" x2="225.47250964155398" y2="369.83544615402224" stroke="red" stroke-width="1.5" />
<line x1="225.47250964155398" y1="369.83544615402224" x2="44.809743529667" y2="165.90933904765842" stroke="red" stroke-width="1.5" />
<line x1="44.809743529667" y1="165.90933904765842" x2="44.80974352966703" y2="245.132942583484" stroke="red" stroke-width="1.5" />
<line x1="44.80974352966703" y1="245.132942583484" x2="299.5478657516206" y2="341.7423691710982" stroke="red" stroke-width="1.5" />
<line x1="299.5478657516206" y1="341.7423691710982" x2="299.5478657516204" y2="69.29991246004403" stroke="red" stroke-width="1.5" />
<line x1="299.5478657516204" y1="69.29991246004403" x2="225.47250964155398" y2="369.83544615402224" stroke="red" stroke-width="1.5" />
<line x1="225.47250964155398" y1="369.83544615402224" x2="352.08283232371195" y2="128.59963121545542" stroke="red" stroke-width="1.5" />
<circle cx="352.08283232371207" cy="282.44265041568667" r="20.0" stroke="black" stroke-width="3" fill ="white" />
<circle cx="299.5478657516206" cy="341.7423691710982" r="20.0" stroke="black" stroke-width="3" fill ="white" />
<circle cx="225.47250964155398" cy="369.83544615402224" r="20.0" stroke="black" stroke-width="3" fill ="white" />
<circle cx="146.82653537351393" cy="360.28609598594994" r="20.0" stroke="black" stroke-width="3" fill ="white" />
<circle cx="81.62678786557385" cy="315.28195970824174" r="20.0" stroke="black" stroke-width="3" fill ="white" />
<circle cx="44.80974352966703" cy="245.132942583484" r="20.0" stroke="black" stroke-width="3" fill ="white" />
<circle cx="44.809743529667" cy="165.90933904765842" r="20.0" stroke="black" stroke-width="3" fill ="white" />
<circle cx="81.62678786557377" cy="95.76032192290067" r="20.0" stroke="black" stroke-width="3" fill ="white" />
<circle cx="146.82653537351388" cy="50.756185645192375" r="20.0" stroke="black" stroke-width="3" fill ="white" />
<circle cx="225.47250964155384" cy="41.20683547712005" r="20.0" stroke="black" stroke-width="3" fill ="white" />
<circle cx="299.5478657516204" cy="69.29991246004403" r="20.0" stroke="black" stroke-width="3" fill ="white" />
<circle cx="352.08283232371195" cy="128.59963121545542" r="20.0" stroke="black" stroke-width="3" fill ="white" />
<circle cx="371.0422816311423" cy="205.52114081557082" r="20.0" stroke="black" stroke-width="3" fill ="white" />
<text fill="black" font-family="sens-serif" font-size="15" x="352.08283232371207" y="287.44265041568667" text-anchor="middle">0</text>
<text fill="black" font-family="sens-serif" font-size="15" x="299.5478657516206" y="346.7423691710982" text-anchor="middle">1</text>
<text fill="black" font-family="sens-serif" font-size="15" x="225.47250964155398" y="374.83544615402224" text-anchor="middle">2</text>
<text fill="black" font-family="sens-serif" font-size="15" x="146.82653537351393" y="365.28609598594994" text-anchor="middle">3</text>
<text fill="black" font-family="sens-serif" font-size="15" x="81.62678786557385" y="320.28195970824174" text-anchor="middle">4</text>
<text fill="black" font-family="sens-serif" font-size="15" x="44.80974352966703" y="250.132942583484" text-anchor="middle">5</text>
<text fill="black" font-family="sens-serif" font-size="15" x="44.809743529667" y="170.90933904765842" text-anchor="middle">6</text>
<text fill="black" font-family="sens-serif" font-size="15" x="81.62678786557377" y="100.76032192290067" text-anchor="middle">7</text>
<text fill="black" font-family="sens-serif" font-size="15" x="146.82653537351388" y="55.756185645192375" text-anchor="middle">8</text>
<text fill="black" font-family="sens-serif" font-size="15" x="225.47250964155384" y="46.20683547712005" text-anchor="middle">9</text>
<text fill="black" font-family="sens-serif" font-size="15" x="299.5478657516204" y="74.29991246004403" text-anchor="middle">10</text>
<text fill="black" font-family="sens-serif" font-size="15" x="352.08283232371195" y="133.59963121545542" text-anchor="middle">11</text>
<text fill="black" font-family="sens-serif" font-size="15" x="371.0422816311423" y="210.52114081557082" text-anchor="middle">12</text>
</g> 
 </svg>
